<svg version="1.2" xmlns="http://www.w3.org/2000/svg" viewBox="0 0 800 800" width="800" height="800">
	<title>新增專案</title>
	<style>
		.s0 { fill: #000000;stroke: #000000;stroke-miterlimit:0;stroke-width: 3.2;stroke-dasharray: NaN } 
		.s1 { fill: #000000;stroke: #000000;stroke-miterlimit:0;stroke-width: 1.6;stroke-dasharray: NaN } 
	</style>
	<path id="星際探索  找出最適合你的星球" class="s0" aria-label="星際探索

找出最適合你的星球"  d="m26.8 349.9v-73.4h139.8v73.4h-59.9v19.2h70.3v14.4h-70.3v18.4h63.9v14.3h-63.9v19.2h77.5v15.2h-175.8v-15.2h81.5v-19.2h-62.3v-14.3h62.3v-18.4h-52.7q-8 12.8-18.4 22.4l-14.3-11.2q20.7-19.2 30.3-43.2l15.2 5.6-4.8 12h44.7v-19.2zm16-59.1v16h107.8v-16zm0 28.8v16h107.8v-16zm170.9-40.7h57.5v14.3l-23.1 46.4q18.3 24.7 18.3 49.5 0 28.7-21.5 28.7l-8.8-1.6-3.2-15.9 12 2.4q6.4 0 6.4-13.6 0-24-20-47.9l24-48h-27.2v162.2h-14.4zm72.7-7.2l14.4 3.2-2.4 8.8h27.9v12.7q0 7.2-15.9 33.6-13.6 20.7-36 37.5l-8.8-12.8q33.6-23.9 44.8-58.3h-16.8l-2.4 4.8 9.6 7.2-8 9.6-7.2-6.4-4.8 8 6.4 5.6-8 9.6-4.8-5.6-5.6 5.6-8.7-10.4q17.5-21.6 26.3-52.7zm43.1 9.6l14.4-4 1.6 5.6h39.9v12.7l-19.1 32q10.4 13.6 28.7 23.9l-8 14.4q-44.7-24.7-57.5-84.6zm19.2 14.3l8.8 18.4 11.2-18.4zm-45.5 67.9v-13.6h54.3v13.6zm-28 28.8v-14.4h111v14.4h-47.9v46.3q-0.8 16.8-20.8 16.8l-18.3-2.4-3.2-16 21.5 3.2q4.8 0 4.8-7.2v-40.7zm19.2 8.8l12 9.5q-16.8 21.6-40.8 33.6l-7.9-12.8q21.5-11.2 36.7-30.3zm54.3 11.1l8.8-11.1 37.5 30.3-10.4 12.8zm127-131.8h115v39.1h-15.1v-24.7h-84.7v23.9h-15.2zm36 26.4l14.3 8q-15.1 21.6-38.3 40.7l-12-12q21.6-17.5 36-36.7zm26.3 12.8l10.4-11.2q23.2 13.6 41.5 31.9l-11.1 13.6q-19.2-20.7-40.8-34.3zm-61.5 60.7v-14.4h47.2v-25.6h15.1v25.6h51.9v14.4h-43.1q19.2 31.9 48.7 47.1l-8.8 16.8q-27.9-17.6-48.7-52.7v63.9h-15.1v-62.3q-20.8 31.9-50.4 50.3l-10.3-12.8q32.7-19.2 52.7-50.3zm-61.5-59.9v-15.2h19.1v-33.5h15.2v33.5h19.2v15.2h-19.2v39.9l15.2-8.8 3.2 14.4-18.4 12v62.3q-0.8 15.2-15.2 15.2l-15.1-1.6-4-15.2 16.7 1.6q2.4 0 2.4-8.8v-45.5l-16.7 8.8-5.6-16.8 22.3-10.4v-47.1zm215.7-20v-14.4h70.3v-15.1h16.7v15.1h70.3v14.4h-70.3v15.2h76.7v35.9h-16v-21.5h-137.3v22.3h-16v-36.7h75.9v-15.2zm36.7 59.1l47.9-2.4 24-16 12.8 8.8q-40.8 31.2-87.9 44.8 63.1-1.6 96.6-8l-15.9-15.2 12.7-8.8q19.2 16 37.6 38.3l-13.6 9.6-9.6-12-51.9 5.6v32.8q0 11.2-4 16-4 4-18.4 4l-12.7-0.8-2.4-16 15.1 1.6q5.6 0 5.6-7.2v-29.6l-68.7 2.4-2.3-15.1q34.3-8.8 63-24l-49.5 3.2-2.4-11.2q23.2-10.4 37.6-27.1l15.1 4.8q-11.1 13.5-28.7 21.5zm67.1 63.1l8.8-11.2q26.3 9.6 51.9 28.8l-8.8 14.4q-25.6-21.6-51.9-32zm-65.5-8l9.6 10.4q-16.8 16.8-53.5 28.8l-6.4-13.6q31.9-10.4 50.3-25.6z"/>
	<path id="星際探索  找出最適合你的星球" class="s1" aria-label="星際探索

找出最適合你的星球"  d="m176.2 545.7l15.2-2.3 0.5 4.4-15.2 2.3 2.3 13.7q4.1-4.9 7.4-11.8l4.4 1.4q-4.2 9.2-10.2 15.4 3.9 9.7 6.5 9.7 1.3 0 1.8-7.6l4.4 1.2q-1.2 12.2-6.2 12.2-4.9 0-10-12-6.7 5.8-15.4 9.7l-2.4-4.2q6.3-2.7 11.4-6.4l4.6-3.9q-2.3-7.4-3.5-16.7l-10.8 1.6-0.7-4.3 11.3-1.7-0.5-15.2h4.6zm2.6-9.5l2.8-3.4q4.6 2.7 8.3 6.2l-3.3 3.7q-3.7-3.9-7.8-6.5zm-38.8 9v-4.4h8.5v-9.7h4.6v9.7h7.2v4.4h-7.2v12l7.2-3 0.9 4.2-8.1 3.7v17.1q-0.2 5.1-5 5.1l-7-0.7-0.9-4.9 7.2 0.9q1.1 0 1.1-2.7v-13l-7.6 2.8-1.6-4.8 9.2-3v-13.7zm62.4 36.5v-21.9h4.6v17.5h16.2v-22.8h-18.5v-18.7h4.6v14.3h13.9v-19h4.6v19h13.6v-14.3h4.6v20.3h-4.6v-1.6h-13.6v22.8h16.2v-17.5h4.6v24.5h-4.6v-2.6zm62.8-31.8v-17.1h39.2v17.1zm4.6-13.4v3h30.3v-3zm0 6.4v3h30.3v-3zm-11.6 13.9v-3.7h53.1v3.7h-27.9v17.1l3-0.5 0.7 4.2-3.7 0.4v6.3h-4.4v-5.6l-20.1 2.3-0.7-4.4 4.6-0.4v-19.4zm9.3 0v3.9h11.5v-3.9zm0 7.1v4.2h11.6v-4.2zm0 7.4v4.6l11.5-1.3v-3.3zm20.1-2.7l2.3-3.5q3 4.8 7.2 8.1 3.7-4.2 5.5-9h-15.2v-4.2h20.3v4.2q-2.8 6.9-6.9 11.5 4.8 2.6 10.6 4.2l-2.1 4.4q-6.5-1.9-11.8-5.3-4.1 3.2-9.9 5.3l-1.6-4q4.4-1.6 7.8-4.1-3.4-3.3-6.2-7.6zm30.5-32.6l3.2-3.5q4.6 3 8.3 7.2l-3.2 3.9q-3.9-4.6-8.3-7.6zm-0.7 20.1v-4.4h11.5v22.2q3.5 2.5 8.6 3.2 5.1 0.7 33.2 0.7l-2.3 5.1h-18.5q-16.1 0-22.8-5.8l-6.7 6.7-3.2-4.8 7.1-4.4v-18.5zm15.3-16.9v-4.1h15.4l-1.6-2.1 3.9-2.5 3 4.6h16.2v4.1h-6.9l-2.8 5.3h8.5v26.4q0 5.3-6.4 5.3l-6-0.5-0.9-4.1 6.7 0.4q2 0 2-2.1v-21.2h-25.1v26.3h-4.7v-30.5h10l-3-5.3zm13.4 0l2.7 5.3h6.7l2.6-5.3zm-5.6 16.9v-3.5h8.8v-2.7h4.2v2.7h8.7v3.5h-8.7v2.8h7.1v11h-18.5v-11h7.2v-2.8zm5.3 6.5v3.9h11.1v-3.9zm56.8-32.1l4.9 1.3-1.7 1.9q11.6 9.2 24.3 14.3l-2.8 4.6q-12.2-5.3-24.2-15.9-10.9 10.2-24.7 16.4l-2.6-4.2q18.7-8.7 26.8-18.4zm-17.1 24.4v-4.6h34.9v4.6zm-2.3 6.3h39.2v23.1h-4.6v-3.7h-30v3.7h-4.6zm4.6 4.4v10.6h30v-10.6zm61.2-34.5l4.6 1.4-6 13.2v38.6h-4.6v-31.2l-5.8 6.9-2.3-4.6q10-11.6 14.1-24.3zm11.8 0l4.4 1.4-2.3 7.4h25.2v4.4l-4.9 8.8-3.7-2.6 3.5-6.2h-21.7q-2.1 5.8-5.8 11.3l-3.9-3q6.4-9.9 9.2-21.5zm8.1 46.9v-29.5h4.6v30.2q0 5.8-5.5 5.8l-7.4-0.5-1-4.6 8.4 0.7q0.9 0 0.9-2.1zm9-20.8l4.4-1.1q4.1 9.5 5.5 19.4l-4.8 1.4q-1.4-10.7-5.1-19.7zm-18.5-1.1l4.4 1.1q-1.4 10.9-7.4 20.1l-4.1-2.3q5.7-9.4 7.1-18.9zm67.2-24.7l4.6 0.9-3 8.5h18q0 25.9-1.3 34.7-1.4 8.8-8.4 8.8l-7.1-1-1.2-4.8 8.3 0.9q2.1 0 3-1.8 1-1.9 1.4-10 0.5-8.1 0.5-22.4h-15.5q-2.7 4.9-6 8.1l-3.4-3.2q6.9-7.6 10.1-18.7zm-2.5 24.7l4.4-1.9q3.4 5.1 5.7 11.4l-4.3 2q-2.4-6.4-5.8-11.5zm-18-17.3h9.4v41.8h-4.1v-1.9h-10.6v3.5h-4.2v-43.4h5.1l1.6-7.7 4.8 1zm-5.3 17.7h10.7v-13.3h-10.7zm10.7 4.3h-10.7v13.4h10.7zm48.9-7.1v-21.3h40.4v21.3h-17.3v5.5h20.3v4.2h-20.3v5.3h18.5v4.1h-18.5v5.6h22.4v4.4h-50.8v-4.4h23.6v-5.6h-18.1v-4.1h18.1v-5.3h-15.3q-2.3 3.7-5.3 6.4l-4.2-3.2q6.1-5.5 8.8-12.5l4.4 1.7-1.4 3.4h13v-5.5zm4.6-17.1v4.6h31.2v-4.6zm0 8.3v4.6h31.1v-4.6zm48.5-6.5v-4.4h17.3v4.4h-6.4v13.4h5.5v4.2h-5.5v14.1l5.5-2.6 0.7 4.4q-7.4 3.7-16.6 6.3l-0.9-4.7 6.9-2v-15.5h-5.8v-4.2h5.8v-13.4zm40.4-5.3l3.2-2.1q2.8 3 4.4 6.3l-3.9 2.1zm-21.2 11.3v-4.2h13.6v-9h4.4v9h13.4v4.2h-13.4v11.3l1.1 1.1q3.5-4.3 6-9.4l4.2 2.5q-3.9 6.5-7.6 10.4 5.3 6.9 11.7 12.2l-3 4.2q-6.7-6-12.4-14.1v16.2q-0.3 5.1-6.3 5.1l-6-0.7-0.9-4.6q3 0.9 6.2 0.9 2.6 0 2.6-2.8v-13.9q-5.6 8.4-12.5 13.9l-3.2-3.7q9.9-8.3 15.7-18v-10.6zm0.4 6l4-2.3q3.2 4.4 5.3 9.4l-3.9 2.3q-1.9-4.8-5.4-9.4z"/>
</svg>